<svg class="solo" xmlns="http://www.w3.org/2000/svg" viewBox="0 0 89.5 34"><g fill="none"><path d="M0 0h89.5v34H0z" fill="#009adc"/><path d="M21.3 9.9c1.4 0 1.9-.4 1.9-1.6 0-1.2-.5-1.6-1.9-1.6h-2.8v3.2zm-6.2-6.1h6.2c4.3 0 5.3 1.9 5.3 4.4 0 2.5-1 4.6-5.5 4.6h-2.6v3.4h-3.4zm11.9 3l2.6-.2.3 1c.4-.6 1.6-1.1 2.9-1.1v3.2c-2.2 0-2.5.7-2.5 2v4.5H27zm9.1 3.8h3.4c0-.8-.2-1.4-1.5-1.4-1.3-.1-1.8.4-1.9 1.4m-3.2.8c0-2.6.9-5 5.2-5s4.5 2.7 4.4 6.2h-6.4c.2.8.7 1.2 2 1.2 1.4 0 2.3-.3 3-.8l1.7 2.1c-1.3 1-2.7 1.4-4.6 1.4-4.4-.1-5.3-2.4-5.3-5.1" fill="#fff"/><path d="M42.7 15.1l1.6-2.3c.9.6 2.3 1 3.5 1 1.2 0 1.3-.1 1.3-.4 0-.3-.2-.4-1.3-.5-2.5-.2-4.5-.5-4.5-3.3 0-2.1 1.2-3.2 4.5-3.2 1.6 0 3.2.3 4.3.9l-1.5 2.5c-.7-.3-1.8-.6-2.7-.6-1.2 0-1.3.1-1.3.4 0 .3.2.4 1.2.5 2.5.2 4.5.5 4.5 3.1 0 2.2-1.2 3.2-4.8 3.2-1.8 0-3.6-.5-4.8-1.3" fill="#fff"/><path d="M51.9 15.1l1.6-2.3c.9.6 2.3 1 3.5 1 1.2 0 1.3-.1 1.3-.4 0-.3-.2-.4-1.3-.5-2.5-.2-4.5-.5-4.5-3.3 0-2.1 1.2-3.2 4.5-3.2 1.6 0 3.2.3 4.3.9l-1.5 2.5c-.7-.3-1.8-.6-2.7-.6-1.2 0-1.3.1-1.3.4 0 .3.2.4 1.2.5 2.5.2 4.5.5 4.5 3.1 0 2.2-1.2 3.2-4.8 3.2-1.8 0-3.5-.5-4.8-1.3m13-4.5h3.4c-.1-.8-.2-1.4-1.5-1.4-1.4-.1-1.8.4-1.9 1.4m-3.2.8c0-2.6.9-5 5.2-5s4.6 2.7 4.4 6.2h-6.4c.2.8.7 1.2 2 1.2 1.4 0 2.3-.3 2.9-.8l1.7 2.1c-1.3 1-2.7 1.4-4.6 1.4-4.3-.1-5.2-2.4-5.2-5.1M25.6 22.9c0-2-.7-3.5-3.4-3.5s-3.4 1.5-3.4 3.5.7 3.5 3.4 3.5c2.8 0 3.4-1.4 3.4-3.5m-10.5 0c0-5.1 3-6.8 7.2-6.8s7.1 1.7 7.1 6.8-3 6.8-7.1 6.8c-4.3-.1-7.2-1.8-7.2-6.8m14.7 1.4c0-2.8.9-5.3 5.6-5.3 1.8 0 3.3.6 4.3 1.8l-2.5 2.3c-.4-.4-.8-.9-1.9-.9-1.7 0-2 .9-2 2.2 0 1.2.3 2.2 2 2.2.8 0 1.4-.2 2.1-.9l2.2 2.1a5.66 5.66 0 0 1-4.5 1.8c-4.3 0-5.3-2.4-5.3-5.3" fill="#fff"/><path d="M42.7 23.1h3.7c0-.8-.2-1.5-1.6-1.5-1.5 0-2 .5-2.1 1.5m-3.4.9c0-2.8 1-5.3 5.5-5.3s4.8 2.9 4.7 6.5h-6.8c.2.8.7 1.2 2.1 1.2 1.5 0 2.4-.4 3.2-.9l1.8 2.2a7.35 7.35 0 0 1-4.9 1.5c-4.6 0-5.6-2.4-5.6-5.2m17.3 1.4v-.3h-.1c-3.2 0-3.3.3-3.3 1 0 .5.3.7 1.3.7 1.5 0 2.1-.4 2.1-1.4m-6.8 1c0-2.9 2.1-3.4 6.4-3.4h.3c0-.5-.2-.9-1.7-.9-1.2 0-2.3.5-2.9.8l-1.8-2.6c.8-.5 2.7-1.3 5-1.3 3.8 0 4.6 1.1 4.6 4v2.7c0 .6 0 .8.8.8v2.9c-.2 0-.7.1-1.5.1-1 0-1.6-.1-2.1-.9-.5.6-1.6 1-3.4 1-3 0-3.7-1.4-3.7-3.2m11.4-6.9l2.7-.2.3.9c.6-.6 1.6-1.1 3.7-1.1 3 0 3.7 1.7 3.7 4.2v6.1H68V24c0-1-.1-1.7-1.4-1.7-1.6 0-1.8.7-1.8 1.8v5.4h-3.5z" fill="#fff"/><path d="M44.8 15.5H49L45.5 19h-3.1z" fill="#e2001a"/></g></svg>